Coordinates
version=1
nRows=17
nColumns=38
inDegrees=no

Units are S.I. units (second, meters, Newtons, ...)
If the header above contains a line with 'inDegrees', this indicates whether rotational values are in degrees (yes) or radians (no).

endheader
time	pelvis_tilt	pelvis_list	pelvis_rotation	pelvis_tx	pelvis_ty	pelvis_tz	hip_flexion_r	hip_adduction_r	hip_rotation_r	knee_angle_r	ankle_angle_r	subtalar_angle_r	mtp_angle_r	hip_flexion_l	hip_adduction_l	hip_rotation_l	knee_angle_l	ankle_angle_l	subtalar_angle_l	mtp_angle_l	lumbar_extension	lumbar_bending	lumbar_rotation	arm_flex_r	arm_add_r	arm_rot_r	elbow_flex_r	pro_sup_r	wrist_flex_r	wrist_dev_r	arm_flex_l	arm_add_l	arm_rot_l	elbow_flex_l	pro_sup_l	wrist_flex_l	wrist_dev_l
0	-2.95958	1.2642	1.59405	0.725078	0.918761	0.987159	0.932993	-0.0363175	-0.0870712	0.727864	0.148977	0	0	0.173646	-0.104009	-0.14562	0.639474	0.214387	0	0	0.353082	0.0649042	-0.227718	-0.290964	-0.292878	1.07189	0.41297	0.77545	0	0	0.151124	-0.414675	0.638061	0.453636	1.32574	0	0
0.01	-2.94705	1.25883	1.58238	0.724732	0.90648	0.98655	0.926663	-0.0165296	-0.0467106	0.724763	0.136138	0	0	0.176379	-0.111945	-0.13996	0.653385	0.203673	0	0	0.363406	0.0711199	-0.222681	-0.295511	-0.292675	1.07278	0.408197	0.761115	0	0	0.149306	-0.408996	0.647291	0.448308	1.32952	0	0
0.02	-2.93574	1.25749	1.57237	0.724624	0.893716	0.986436	0.92438	-0.0132797	-0.0460691	0.733746	0.125509	0	0	0.174945	-0.118333	-0.132209	0.667306	0.191402	0	0	0.367159	0.0785031	-0.222637	-0.296799	-0.294686	1.0714	0.404353	0.751403	0	0	0.141993	-0.405851	0.650438	0.448822	1.33119	0	0
0.03	-2.92355	1.25532	1.55971	0.724347	0.880945	0.986597	0.922579	-0.00934542	-0.0468817	0.738937	0.109925	0	0	0.176258	-0.124553	-0.122866	0.684529	0.177351	0	0	0.370722	0.0873548	-0.222793	-0.296042	-0.296943	1.07002	0.39905	0.743114	0	0	0.132009	-0.402868	0.650067	0.45062	1.3334	0	0
0.04	-2.9111	1.26522	1.54464	0.723575	0.868726	0.987986	0.90743	-0.00298665	-0.0494122	0.742294	0.0845725	0	0	0.167405	-0.13096	-0.114048	0.70539	0.160644	0	0	0.356902	0.0968125	-0.222272	-0.287357	-0.296907	1.07226	0.389981	0.734833	0	0	0.124528	-0.401573	0.646593	0.453495	1.3361	0	0
0.05	-2.90129	1.26768	1.52999	0.72262	0.856082	0.988726	0.900763	0.00440871	-0.0548619	0.748741	0.0639254	0	0	0.168544	-0.136488	-0.105492	0.730807	0.142833	0	0	0.352656	0.106174	-0.218832	-0.281862	-0.298974	1.07412	0.383973	0.727075	0	0	0.112741	-0.39955	0.640176	0.458981	1.33914	0	0
0.06	-2.89465	1.25871	1.51932	0.72175	0.843539	0.988812	0.907002	0.0105193	-0.062932	0.757147	0.0499105	0	0	0.186171	-0.139094	-0.0882535	0.761618	0.123493	0	0	0.362947	0.114501	-0.216418	-0.279022	-0.302445	1.07602	0.379109	0.719891	0	0	0.0965645	-0.396465	0.632522	0.464081	1.34386	0	0
0.07	-2.89585	1.25039	1.51419	0.720823	0.830898	0.989141	0.913317	0.0158457	-0.0697682	0.767936	0.040636	0	0	0.204711	-0.13811	-0.0713123	0.79321	0.100469	0	0	0.372855	0.120974	-0.211698	-0.275489	-0.306514	1.07928	0.374988	0.713682	0	0	0.0792339	-0.392961	0.623455	0.468979	1.34716	0	0
0.08	-2.89775	1.24297	1.50886	0.719854	0.818128	0.989705	0.917146	0.0218798	-0.0752716	0.778402	0.0338602	0	0	0.224243	-0.136255	-0.0543648	0.826152	0.0735647	0	0	0.38202	0.127336	-0.205809	-0.271501	-0.311268	1.08322	0.371798	0.708206	0	0	0.0621838	-0.388086	0.613983	0.472706	1.34643	0	0
0.09	-2.89595	1.23622	1.49978	0.71876	0.805526	0.990324	0.918269	0.0292325	-0.0796595	0.78738	0.0305794	0	0	0.246125	-0.135581	-0.0370121	0.862534	0.0443464	0	0	0.389871	0.134647	-0.199476	-0.266735	-0.317285	1.0868	0.371264	0.70349	0	0	0.0458622	-0.38356	0.606943	0.477005	1.34538	0	0
0.1	-2.89262	1.2304	1.48926	0.717657	0.793134	0.991038	0.916589	0.0361007	-0.0850835	0.793895	0.030155	0	0	0.269814	-0.135475	-0.0205759	0.901487	0.0144565	0	0	0.396122	0.142137	-0.192984	-0.261161	-0.324706	1.08855	0.373655	0.698954	0	0	0.0299809	-0.379601	0.601707	0.48149	1.34553	0	0
0.11	-2.88684	1.22569	1.47647	0.716506	0.780924	0.991799	0.911556	0.0433329	-0.0917884	0.7971	0.0323211	0	0	0.294589	-0.136374	-0.00522924	0.942905	-0.011863	0	0	0.400613	0.15	-0.186589	-0.254771	-0.333238	1.08814	0.378662	0.695566	0	0	0.0149234	-0.375973	0.597848	0.485994	1.34729	0	0
0.12	-2.88103	1.2251	1.46396	0.715194	0.769136	0.992775	0.901696	0.0505329	-0.0985491	0.799138	0.0366319	0	0	0.317394	-0.136935	0.0105138	0.986784	-0.0343301	0	0	0.399218	0.156803	-0.180345	-0.245516	-0.341394	1.08728	0.384473	0.693615	0	0	0.00207038	-0.373098	0.594342	0.490728	1.34786	0	0
0.13	-2.87776	1.22436	1.45446	0.713996	0.757617	0.993657	0.891951	0.0566858	-0.104907	0.8006	0.042337	0	0	0.342603	-0.135855	0.0273395	1.03226	-0.0585572	0	0	0.398077	0.16206	-0.174449	-0.2359	-0.350868	1.08349	0.393312	0.690856	0	0	-0.0109253	-0.370524	0.590817	0.495836	1.34876	0	0
0.14	-2.87765	1.22352	1.44835	0.71291	0.746263	0.994557	0.882091	0.0621818	-0.108726	0.801961	0.0490078	0	0	0.369668	-0.133118	0.0436371	1.0776	-0.0855814	0	0	0.397586	0.165677	-0.168536	-0.226397	-0.361263	1.07625	0.404384	0.687239	0	0	-0.0235853	-0.367347	0.58661	0.500014	1.34802	0	0
0.15	-2.88143	1.22286	1.44508	0.711776	0.734912	0.995547	0.871605	0.0680113	-0.108497	0.80388	0.058723	0	0	0.397625	-0.129757	0.0559113	1.12099	-0.119606	0	0	0.397744	0.167841	-0.161312	-0.217978	-0.372884	1.06426	0.418905	0.683984	0	0	-0.0362499	-0.363623	0.582472	0.502633	1.3469	0	0
0.16	-2.88835	1.22492	1.44343	0.710595	0.723678	0.996854	0.857972	0.0742458	-0.103526	0.805563	0.067979	0	0	0.423081	-0.125885	0.0636613	1.16133	-0.151343	0	0	0.394607	0.168736	-0.151371	-0.208257	-0.382678	1.05261	0.430589	0.681905	0	0	-0.0470423	-0.359502	0.579842	0.503048	1.34675	0	0
